<?xml version="1.0" standalone="no"?>
<!DOCTYPE svg PUBLIC "-//W3C//DTD SVG 20010904//EN"
 "http://www.w3.org/TR/2001/REC-SVG-20010904/DTD/svg10.dtd">
<svg version="1.0" xmlns="http://www.w3.org/2000/svg"
 width="600.000000pt" height="600.000000pt" viewBox="0 0 600.000000 600.000000"
 preserveAspectRatio="xMidYMid meet">
<metadata>
Created by potrace 1.14, written by Peter Selinger 2001-2017
</metadata>
<g transform="translate(0.000000,600.000000) scale(0.100000,-0.100000)"
fill="#000000" stroke="none">
<path d="M2862 5604 c-21 -14 -22 -21 -17 -132 2 -64 6 -139 9 -167 3 -27 6
-132 7 -232 1 -182 3 -194 36 -199 17 -3 20 11 23 106 6 207 0 371 -15 440 -4
14 -6 62 -6 107 0 46 -4 85 -8 87 -4 3 -17 -2 -29 -10z"/>
<path d="M3702 5427 c-5 -7 -21 -34 -37 -62 -15 -27 -62 -106 -105 -175 -95
-156 -143 -252 -138 -281 3 -26 28 -39 28 -15 0 9 4 16 8 16 10 0 37 50 34 63
-1 4 2 7 7 7 10 0 67 91 63 103 -1 4 2 7 7 7 11 0 57 71 53 83 -1 4 3 7 8 7 6
0 16 12 23 28 6 15 17 33 24 40 7 8 11 18 8 23 -4 5 -2 9 4 9 6 0 20 18 31 40
11 22 17 40 13 40 -4 0 -2 5 5 12 20 20 15 64 -7 65 -11 1 -24 -4 -29 -10z"/>
<path d="M1926 4987 c-18 -13 -17 -17 12 -78 17 -35 40 -74 52 -86 11 -13 18
-23 15 -23 -3 0 13 -27 35 -60 22 -33 46 -60 52 -60 6 0 8 -3 5 -6 -7 -8 52
-94 65 -94 4 0 8 -6 8 -12 0 -7 17 -32 38 -56 42 -50 74 -51 68 -3 -3 28 -123
201 -138 201 -5 0 -7 4 -3 9 3 5 -5 17 -17 25 -12 9 -20 16 -16 16 6 0 -90
162 -112 187 -5 7 -10 19 -10 27 0 7 -7 17 -16 20 -20 8 -17 8 -38 -7z"/>
<path d="M2910 4685 c-25 -7 -81 -22 -125 -34 -44 -12 -98 -33 -120 -46 -22
-12 -67 -37 -100 -53 -33 -17 -69 -39 -80 -49 -11 -10 -32 -27 -46 -38 -40
-31 -120 -125 -114 -135 3 -4 -2 -10 -9 -13 -28 -11 -136 -265 -152 -357 -1
-8 -5 -25 -9 -38 -7 -22 -8 -22 -54 15 -70 55 -120 110 -186 204 -47 66 -67
107 -94 189 -38 121 -52 152 -67 157 -14 5 -124 -105 -199 -198 -33 -40 -67
-81 -76 -89 -24 -23 -210 -258 -264 -336 -27 -38 -88 -114 -135 -170 -141
-167 -199 -238 -388 -479 -99 -126 -216 -269 -260 -317 -88 -96 -106 -137 -99
-226 4 -50 7 -55 84 -130 44 -42 106 -99 138 -127 32 -27 64 -56 71 -62 7 -7
16 -13 20 -13 3 0 23 -15 43 -32 20 -18 54 -46 75 -63 21 -16 45 -36 52 -42 7
-7 15 -13 19 -13 5 0 64 -39 75 -50 3 -3 17 -11 32 -19 16 -8 28 -18 28 -23 0
-4 7 -8 15 -8 8 0 15 -3 15 -7 0 -5 18 -17 40 -27 22 -10 48 -27 59 -37 11
-11 23 -19 26 -19 8 0 150 -94 153 -102 2 -5 8 -8 13 -8 6 0 36 -17 67 -37
108 -70 331 -173 372 -173 11 0 20 -4 20 -10 0 -5 6 -10 13 -10 11 0 177 -59
247 -87 8 -4 17 -7 20 -8 3 0 30 -8 60 -17 73 -22 209 -59 237 -64 12 -2 33
-8 45 -13 22 -8 29 -10 53 -16 6 -1 35 -9 65 -18 173 -50 203 -58 208 -53 3 3
10 2 16 -3 13 -11 190 -70 226 -76 45 -8 55 -11 80 -25 14 -7 50 -21 80 -31
30 -10 111 -39 180 -64 69 -25 130 -47 135 -48 6 -1 15 -5 20 -9 6 -3 59 -25
119 -48 103 -39 244 -108 276 -135 8 -7 38 -24 67 -39 28 -14 114 -63 190
-109 76 -46 163 -97 193 -112 30 -15 69 -37 85 -49 46 -34 235 -146 246 -146
5 0 14 12 19 28 18 47 33 71 42 66 4 -3 9 3 10 13 0 10 2 23 2 29 1 6 7 19 15
28 7 9 10 16 6 16 -5 0 -1 8 8 18 9 10 28 54 42 97 15 44 42 114 62 155 20 41
36 82 36 90 0 8 18 56 39 105 22 50 42 99 45 110 4 11 25 67 48 125 24 58 46
121 50 139 4 19 18 55 31 82 14 26 43 99 65 161 22 62 48 131 59 153 10 22 22
54 26 70 4 17 12 37 19 45 18 23 125 286 125 309 0 6 7 30 15 55 8 24 18 65
21 91 3 26 9 58 14 71 5 13 7 24 4 24 -2 0 2 13 11 30 32 62 9 171 -62 292
-146 250 -308 402 -538 505 -243 109 -508 173 -795 191 -86 6 -104 10 -101 22
28 113 37 336 15 371 -5 8 -9 20 -10 28 -4 26 -48 126 -58 133 -6 4 -8 8 -4 8
12 0 -12 56 -33 79 -11 11 -17 21 -14 21 12 0 -115 176 -152 211 -103 96 -295
199 -401 214 -138 21 -175 24 -242 24 -41 -1 -95 -7 -120 -14z"/>
<path d="M4564 4668 c-16 -12 -31 -25 -34 -29 -3 -3 -15 -9 -27 -13 -13 -4
-23 -12 -23 -17 0 -5 -5 -9 -10 -9 -12 0 -269 -166 -285 -184 -6 -6 -17 -12
-25 -14 -8 -2 -16 -8 -18 -13 -2 -5 -8 -9 -13 -9 -5 0 -31 -14 -59 -31 -53
-32 -68 -70 -33 -83 16 -6 152 68 191 104 9 9 20 16 23 16 10 -1 79 49 79 57
0 5 4 6 8 3 5 -3 18 3 29 14 12 10 23 17 25 14 3 -2 13 5 23 16 10 11 22 20
26 20 11 0 161 100 179 119 9 9 15 25 15 36 0 29 -35 30 -71 3z"/>
<path d="M4886 3863 c-3 -4 -16 -8 -28 -10 -42 -7 -128 -35 -134 -44 -3 -5 -9
-7 -14 -4 -5 3 -24 0 -42 -8 -18 -7 -82 -26 -143 -42 -60 -16 -111 -32 -113
-36 -2 -5 -10 -5 -17 -3 -8 3 -20 2 -27 -2 -7 -4 -19 -9 -28 -9 -42 -4 -90
-17 -90 -25 0 -5 -6 -7 -13 -4 -7 2 -21 -2 -32 -11 -19 -14 -16 -15 30 -10 28
2 77 7 110 9 65 6 171 23 195 33 8 3 26 8 40 10 14 2 45 10 69 18 25 8 50 15
57 15 7 0 23 4 36 9 13 5 26 9 30 10 4 1 27 9 50 17 24 9 48 17 53 18 41 9 54
19 52 39 -1 29 -24 46 -41 30z"/>
</g>
</svg>
